<svg xmlns="http://www.w3.org/2000/svg"  viewBox="0 0 64 64" width="64px" height="64px" baseProfile="basic"><linearGradient id="g-SbHLG5nPBdQgxEcfUPua" x1="32" x2="32" y1="-88.812" y2="-134.405" gradientTransform="matrix(1 0 0 -1 0 -79.73)" gradientUnits="userSpaceOnUse"><stop offset="0" stop-color="#1a6dff"/><stop offset="1" stop-color="#c822ff"/></linearGradient><path fill="url(#g-SbHLG5nPBdQgxEcfUPua)" d="M50,55H14c-2.757,0-5-2.243-5-5V14c0-2.757,2.243-5,5-5h36c2.757,0,5,2.243,5,5v36	C55,52.757,52.757,55,50,55z M14,11c-1.654,0-3,1.346-3,3v36c0,1.654,1.346,3,3,3h36c1.654,0,3-1.346,3-3V14c0-1.654-1.346-3-3-3H14	z"/><linearGradient id="g-SbHLG5nPBdQgxEcfUPub" x1="32" x2="32" y1="26.154" y2="14.088" gradientUnits="userSpaceOnUse"><stop offset="0" stop-color="#e6abff"/><stop offset="1" stop-color="#6dc7ff"/></linearGradient><polygon fill="url(#g-SbHLG5nPBdQgxEcfUPub)" points="50,19.046 32.087,26.176 14,19.046 14,14.002 50,14.002"/></svg>